<?xml version="1.0" encoding="UTF-8"?>
<!DOCTYPE svg PUBLIC "-//W3C//DTD SVG 1.1//EN" "http://www.w3.org/Graphics/SVG/1.1/DTD/svg11.dtd">
<svg xmlns="http://www.w3.org/2000/svg" version="1.1" width="199px" height="199px" style="shape-rendering:geometricPrecision; text-rendering:geometricPrecision; image-rendering:optimizeQuality; fill-rule:evenodd; clip-rule:evenodd" xmlns:xlink="http://www.w3.org/1999/xlink">
<g><path style="opacity:1" fill="#e2e1de" d="M -0.5,-0.5 C 65.8333,-0.5 132.167,-0.5 198.5,-0.5C 198.5,65.8333 198.5,132.167 198.5,198.5C 132.167,198.5 65.8333,198.5 -0.5,198.5C -0.5,132.167 -0.5,65.8333 -0.5,-0.5 Z"/></g>
<g><path style="opacity:1" fill="#d2e0e7" d="M 109.5,36.5 C 110.922,36.7086 112.255,37.2086 113.5,38C 118.735,43.0708 124.401,47.5708 130.5,51.5C 131.327,47.5408 131.827,43.5408 132,39.5C 132.692,38.9747 133.192,38.3081 133.5,37.5C 138.878,37.0507 144.211,36.8841 149.5,37C 150.333,37.8333 151.167,38.6667 152,39.5C 152.168,50.1822 152.668,60.8489 153.5,71.5C 156.769,73.7192 158.769,76.7192 159.5,80.5C 156.786,77.7846 153.786,75.4512 150.5,73.5C 150.167,72.8333 149.833,72.1667 149.5,71.5C 149.666,61.1613 149.5,50.828 149,40.5C 144.252,39.3651 139.419,39.1985 134.5,40C 133.944,40.3826 133.611,40.8826 133.5,41.5C 132.833,46.1667 132.167,50.8333 131.5,55.5C 123.753,49.6294 116.42,43.2961 109.5,36.5 Z"/></g>
<g><path style="opacity:1" fill="#21577a" d="M 149.5,71.5 C 149.833,72.1667 150.167,72.8333 150.5,73.5C 150.062,73.4346 149.728,73.6012 149.5,74C 156.217,78.6661 158.551,84.9995 156.5,93C 158.795,93.9836 158.461,94.8169 155.5,95.5C 155.007,90.8206 154.007,86.3206 152.5,82C 149.748,80.2492 146.748,79.4158 143.5,79.5C 143.719,78.325 143.386,77.325 142.5,76.5C 139.284,75.0626 136.284,73.3959 133.5,71.5C 133.318,68.297 131.652,66.4637 128.5,66C 125.584,61.6529 126.584,59.8195 131.5,60.5C 133.131,58.7026 135.131,57.5359 137.5,57C 136.619,51.7554 135.619,46.5887 134.5,41.5C 138.555,41.1758 142.555,41.5091 146.5,42.5C 148.023,52.2279 149.023,61.8946 149.5,71.5 Z"/></g>
<g><path style="opacity:1" fill="#2a5773" d="M 109.5,36.5 C 116.42,43.2961 123.753,49.6294 131.5,55.5C 131.56,56.0431 131.893,56.3764 132.5,56.5C 133.494,51.544 133.827,46.544 133.5,41.5C 133.611,40.8826 133.944,40.3826 134.5,40C 139.419,39.1985 144.252,39.3651 149,40.5C 149.5,50.828 149.666,61.1613 149.5,71.5C 149.023,61.8946 148.023,52.2279 146.5,42.5C 142.555,41.5091 138.555,41.1758 134.5,41.5C 135.619,46.5887 136.619,51.7554 137.5,57C 135.131,57.5359 133.131,58.7026 131.5,60.5C 126.584,59.8195 125.584,61.6529 128.5,66C 131.652,66.4637 133.318,68.297 133.5,71.5C 119.744,60.5834 106.41,49.0834 93.5,37C 92.5,36.3333 91.5,36.3333 90.5,37C 86.9378,40.7316 83.2712,44.2316 79.5,47.5C 63.7516,60.4707 48.2516,73.804 33,87.5C 32.5,115.165 32.3334,142.831 32.5,170.5C 30.6737,145.186 29.8404,119.52 30,93.5C 28.8372,91.7148 28.1705,89.7148 28,87.5C 27.3109,86.6433 26.4776,85.9767 25.5,85.5C 19.6468,86.5111 15.3135,89.6778 12.5,95C 13.5488,98.7356 15.5488,99.4022 18.5,97C 18.1667,96.6667 17.8333,96.3333 17.5,96C 19.4727,95.5045 21.4727,95.3379 23.5,95.5C 24.4736,122.135 24.8069,148.801 24.5,175.5C 23.8333,150.167 23.1667,124.833 22.5,99.5C 22.6495,98.448 22.4828,97.448 22,96.5C 19.2929,100.035 15.7929,101.202 11.5,100C 9.1145,97.2935 8.94783,94.4602 11,91.5C 25.3848,79.2726 39.5515,66.9392 53.5,54.5C 64.6677,44.8349 76.001,35.3349 87.5,26C 90.1667,25.3333 92.8333,25.3333 95.5,26C 100.327,29.332 104.993,32.832 109.5,36.5 Z"/></g>
<g><path style="opacity:1" fill="#849ead" d="M 133.5,41.5 C 133.827,46.544 133.494,51.544 132.5,56.5C 131.893,56.3764 131.56,56.0431 131.5,55.5C 132.167,50.8333 132.833,46.1667 133.5,41.5 Z"/></g>
<g><path style="opacity:1" fill="#2b5672" d="M 133.5,71.5 C 136.284,73.3959 139.284,75.0626 142.5,76.5C 143.386,77.325 143.719,78.325 143.5,79.5C 146.748,79.4158 149.748,80.2492 152.5,82C 154.007,86.3206 155.007,90.8206 155.5,95.5C 158.461,94.8169 158.795,93.9836 156.5,93C 158.551,84.9995 156.217,78.6661 149.5,74C 149.728,73.6012 150.062,73.4346 150.5,73.5C 153.786,75.4512 156.786,77.7846 159.5,80.5C 164.096,83.9244 167.763,88.0911 170.5,93C 170.262,96.0705 168.596,97.5705 165.5,97.5C 163.956,97.2104 162.623,96.5437 161.5,95.5C 160.511,99.1073 160.177,102.774 160.5,106.5C 159.5,106.5 158.5,106.5 157.5,106.5C 158.119,101.794 156.119,99.1268 151.5,98.5C 151.5,98.1667 151.5,97.8333 151.5,97.5C 151.665,94.1501 151.498,90.8168 151,87.5C 144.971,82.3008 139.138,76.9674 133.5,71.5 Z"/></g>
<g><path style="opacity:1" fill="#121a1d" d="M 101.5,124.5 C 96.1667,124.5 90.8333,124.5 85.5,124.5C 85.5,126.5 85.5,128.5 85.5,130.5C 84.8148,135.224 83.1481,139.557 80.5,143.5C 87.4665,144.498 94.4665,145.164 101.5,145.5C 105.336,145.633 109.002,144.967 112.5,143.5C 115.959,146.307 117.459,149.973 117,154.5C 111.587,156.859 105.92,158.192 100,158.5C 93.0658,157.079 86.0658,156.079 79,155.5C 72.9429,155.459 67.1096,156.459 61.5,158.5C 61.0073,155.188 60.0073,152.021 58.5,149C 62.2354,146.273 65.7354,143.106 69,139.5C 71.0331,134.705 71.8664,129.705 71.5,124.5C 67.4862,124.666 63.4862,124.499 59.5,124C 58.3832,120.927 58.2165,117.76 59,114.5C 59.3826,113.944 59.8826,113.611 60.5,113.5C 63.5,113.5 66.5,113.5 69.5,113.5C 69.7373,112.209 69.404,111.209 68.5,110.5C 64.6838,93.6252 70.6838,82.1252 86.5,76C 99.7,73.849 109.2,78.6823 115,90.5C 115.808,92.5787 115.641,94.5787 114.5,96.5C 110.776,97.3765 107.11,98.3765 103.5,99.5C 101.732,90.7725 96.3985,87.2725 87.5,89C 85.6217,90.5429 84.1217,92.3762 83,94.5C 82.4065,100.856 82.5731,107.189 83.5,113.5C 89.8333,113.5 96.1667,113.5 102.5,113.5C 102.815,117.371 102.482,121.038 101.5,124.5 Z"/></g>
<g><path style="opacity:1" fill="#a95551" d="M 151.5,98.5 C 156.119,99.1268 158.119,101.794 157.5,106.5C 158.5,106.5 159.5,106.5 160.5,106.5C 161.167,107.167 161.833,107.833 162.5,108.5C 159.812,108.834 157.479,108.168 155.5,106.5C 155.429,101.284 152.762,99.1176 147.5,100C 146.529,101.481 145.196,102.315 143.5,102.5C 145.073,99.1069 147.74,97.7736 151.5,98.5 Z"/></g>
<g><path style="opacity:1" fill="#c64a3a" d="M 155.5,106.5 C 154.444,102.297 151.778,100.797 147.5,102C 146.335,104.732 145.002,107.232 143.5,109.5C 143.5,107.167 143.5,104.833 143.5,102.5C 145.196,102.315 146.529,101.481 147.5,100C 152.762,99.1176 155.429,101.284 155.5,106.5 Z"/></g>
<g><path style="opacity:1" fill="#f4d3c9" d="M 151.5,97.5 C 151.5,97.8333 151.5,98.1667 151.5,98.5C 147.74,97.7736 145.073,99.1069 143.5,102.5C 143.5,104.833 143.5,107.167 143.5,109.5C 142.167,109.833 140.833,110.167 139.5,110.5C 138.387,101.284 142.387,96.9503 151.5,97.5 Z"/></g>
<g><path style="opacity:1" fill="#8b9092" d="M 68.5,110.5 C 69.404,111.209 69.7373,112.209 69.5,113.5C 66.5,113.5 63.5,113.5 60.5,113.5C 63.4766,113.098 66.1433,112.098 68.5,110.5 Z"/></g>
<g><path style="opacity:1" fill="#de402a" d="M 155.5,106.5 C 155.414,107.496 155.748,108.329 156.5,109C 160.967,108.61 164.301,110.276 166.5,114C 168.025,115.009 169.692,115.509 171.5,115.5C 171.238,116.978 171.571,118.311 172.5,119.5C 174.197,120.364 175.363,121.697 176,123.5C 176.846,131.308 178.346,138.974 180.5,146.5C 183.196,147.851 185.53,149.684 187.5,152C 188.793,152.49 190.127,152.657 191.5,152.5C 191.5,153.833 191.5,155.167 191.5,156.5C 180.822,160.271 169.656,162.604 158,163.5C 152.008,162.611 146.175,163.611 140.5,166.5C 136.191,167.465 131.857,167.631 127.5,167C 126.62,165.644 126.286,164.144 126.5,162.5C 127.1,161.1 128.1,160.1 129.5,159.5C 130.927,157.852 131.76,155.852 132,153.5C 132.238,149.778 132.738,146.111 133.5,142.5C 130.721,134.383 130.888,126.383 134,118.5C 136,117.167 138,115.833 140,114.5C 140.483,113.552 140.649,112.552 140.5,111.5C 142.179,111.715 143.179,111.048 143.5,109.5C 145.002,107.232 146.335,104.732 147.5,102C 151.778,100.797 154.444,102.297 155.5,106.5 Z"/></g>
<g><path style="opacity:1" fill="#a1a5a5" d="M 101.5,124.5 C 96.6946,125.487 91.6946,125.821 86.5,125.5C 86.7845,127.415 86.4511,129.081 85.5,130.5C 85.5,128.5 85.5,126.5 85.5,124.5C 90.8333,124.5 96.1667,124.5 101.5,124.5 Z"/></g>
<g><path style="opacity:1" fill="#f2d8cf" d="M 160.5,106.5 C 165.13,107.229 169.797,107.563 174.5,107.5C 174.62,109.199 174.954,110.865 175.5,112.5C 179.959,116.458 181.626,121.458 180.5,127.5C 181.5,127.5 182.5,127.5 183.5,127.5C 183.481,129.06 183.148,130.56 182.5,132C 183.917,136.508 185.251,141.008 186.5,145.5C 189.33,145.694 191.996,146.361 194.5,147.5C 194.507,150.038 194.841,152.538 195.5,155C 195.586,157.352 194.586,158.852 192.5,159.5C 193.39,157.218 193.556,154.885 193,152.5C 189.478,149.734 186.145,146.734 183,143.5C 180.967,134.62 178.3,125.954 175,117.5C 172.175,112.668 168.008,109.668 162.5,108.5C 161.833,107.833 161.167,107.167 160.5,106.5 Z"/></g>
<g><path style="opacity:1" fill="#ca4837" d="M 143.5,109.5 C 143.179,111.048 142.179,111.715 140.5,111.5C 140.649,112.552 140.483,113.552 140,114.5C 138,115.833 136,117.167 134,118.5C 130.888,126.383 130.721,134.383 133.5,142.5C 132.738,146.111 132.238,149.778 132,153.5C 131.76,155.852 130.927,157.852 129.5,159.5C 130.079,147.169 130.412,134.836 130.5,122.5C 132.368,118.292 135.035,114.625 138.5,111.5C 139.167,111.5 139.5,111.167 139.5,110.5C 140.833,110.167 142.167,109.833 143.5,109.5 Z"/></g>
<g><path style="opacity:1" fill="#f9c9bc" d="M 138.5,111.5 C 135.035,114.625 132.368,118.292 130.5,122.5C 128.994,125.356 128.328,128.523 128.5,132C 129.395,139.49 129.562,146.99 129,154.5C 128.617,155.056 128.117,155.389 127.5,155.5C 127.533,144.187 127.867,132.854 128.5,121.5C 130.22,116.446 133.554,113.113 138.5,111.5 Z"/></g>
<g><path style="opacity:1" fill="#c64b39" d="M 155.5,106.5 C 157.479,108.168 159.812,108.834 162.5,108.5C 168.008,109.668 172.175,112.668 175,117.5C 178.3,125.954 180.967,134.62 183,143.5C 186.145,146.734 189.478,149.734 193,152.5C 193.556,154.885 193.39,157.218 192.5,159.5C 192.167,159.5 191.833,159.5 191.5,159.5C 188.539,160.323 185.539,160.99 182.5,161.5C 167.23,164.205 151.897,166.539 136.5,168.5C 133.15,168.665 129.817,168.498 126.5,168C 125.193,166.057 125.193,164.223 126.5,162.5C 126.286,164.144 126.62,165.644 127.5,167C 131.857,167.631 136.191,167.465 140.5,166.5C 146.175,163.611 152.008,162.611 158,163.5C 169.656,162.604 180.822,160.271 191.5,156.5C 191.5,155.167 191.5,153.833 191.5,152.5C 190.127,152.657 188.793,152.49 187.5,152C 185.53,149.684 183.196,147.851 180.5,146.5C 178.346,138.974 176.846,131.308 176,123.5C 175.363,121.697 174.197,120.364 172.5,119.5C 171.571,118.311 171.238,116.978 171.5,115.5C 169.692,115.509 168.025,115.009 166.5,114C 164.301,110.276 160.967,108.61 156.5,109C 155.748,108.329 155.414,107.496 155.5,106.5 Z"/></g>
<g><path style="opacity:1" fill="#f8c8bc" d="M 182.5,161.5 C 178.458,163.237 174.124,164.237 169.5,164.5C 169.5,165.5 169.5,166.5 169.5,167.5C 163.963,168.087 158.63,169.087 153.5,170.5C 153.167,170.5 152.833,170.5 152.5,170.5C 152.167,170.5 151.833,170.5 151.5,170.5C 151.38,169.414 150.713,168.747 149.5,168.5C 145.339,169.04 141.339,169.707 137.5,170.5C 133.732,171.787 130.065,171.787 126.5,170.5C 130.122,170.678 133.456,170.011 136.5,168.5C 151.897,166.539 167.23,164.205 182.5,161.5 Z"/></g>
<g><path style="opacity:1" fill="#b75647" d="M 130.5,122.5 C 130.412,134.836 130.079,147.169 129.5,159.5C 128.1,160.1 127.1,161.1 126.5,162.5C 125.193,164.223 125.193,166.057 126.5,168C 129.817,168.498 133.15,168.665 136.5,168.5C 133.456,170.011 130.122,170.678 126.5,170.5C 124.863,169.026 123.863,167.192 123.5,165C 124.622,161.722 125.955,158.556 127.5,155.5C 128.117,155.389 128.617,155.056 129,154.5C 129.562,146.99 129.395,139.49 128.5,132C 128.328,128.523 128.994,125.356 130.5,122.5 Z"/></g>
<g><path style="opacity:1" fill="#bc5d4f" d="M 169.5,167.5 C 170.156,168.622 170.489,169.955 170.5,171.5C 170.415,173.333 169.748,174.666 168.5,175.5C 168.5,173.5 168.5,171.5 168.5,169.5C 163.518,170.053 158.518,170.387 153.5,170.5C 158.63,169.087 163.963,168.087 169.5,167.5 Z"/></g>
<g><path style="opacity:1" fill="#d7e2e7" d="M 79.5,47.5 C 79.2882,50.5584 77.9548,53.0584 75.5,55C 71.9434,57.398 68.2768,59.5646 64.5,61.5C 57.7551,69.0761 50.4217,76.2428 42.5,83C 41.552,83.4828 40.552,83.6495 39.5,83.5C 39.3944,86.1085 38.2277,88.1085 36,89.5C 35.6667,91.5 35.3333,93.5 35,95.5C 34.3333,118.833 34.3333,142.167 35,165.5C 36,166.833 37,166.833 38,165.5C 39.8617,167.361 39.3617,168.694 36.5,169.5C 65.4943,170.333 94.4943,170.833 123.5,171C 130.178,172.129 136.844,172.962 143.5,173.5C 107.167,173.5 70.8333,173.5 34.5,173.5C 33.8333,172.5 33.1667,171.5 32.5,170.5C 32.3334,142.831 32.5,115.165 33,87.5C 48.2516,73.804 63.7516,60.4707 79.5,47.5 Z"/></g>
<g><path style="opacity:1" fill="#225778" d="M 32.5,170.5 C 33.1667,171.5 33.8333,172.5 34.5,173.5C 33.2617,173.81 33.2617,174.31 34.5,175C 70.1667,175.333 105.833,175.667 141.5,176C 141.833,176.333 142.167,176.667 142.5,177C 141.167,177.667 140.167,178.667 139.5,180C 121.254,181.155 102.921,181.655 84.5,181.5C 66.8333,181.333 49.1667,181.167 31.5,181C 30.0953,179.731 28.4286,179.231 26.5,179.5C 26.8432,177.517 26.1765,176.183 24.5,175.5C 24.8069,148.801 24.4736,122.135 23.5,95.5C 21.4727,95.3379 19.4727,95.5045 17.5,96C 17.8333,96.3333 18.1667,96.6667 18.5,97C 15.5488,99.4022 13.5488,98.7356 12.5,95C 15.3135,89.6778 19.6468,86.5111 25.5,85.5C 26.4776,85.9767 27.3109,86.6433 28,87.5C 28.1705,89.7148 28.8372,91.7148 30,93.5C 29.8404,119.52 30.6737,145.186 32.5,170.5 Z"/></g>
<g><path style="opacity:1" fill="#f2d8ce" d="M 191.5,159.5 C 191.833,162.5 190.5,163.833 187.5,163.5C 187.33,164.822 187.663,165.989 188.5,167C 187.667,167.167 186.833,167.333 186,167.5C 183.462,167.019 181.962,166.019 181.5,164.5C 179.547,165.156 177.547,165.489 175.5,165.5C 175.576,167.923 174.576,169.756 172.5,171C 174.699,176.933 172.699,180.6 166.5,182C 162.5,182.667 158.5,182.667 154.5,182C 153.257,180.846 152.257,179.512 151.5,178C 150.552,177.517 149.552,177.351 148.5,177.5C 148.007,175.194 147.674,172.861 147.5,170.5C 144.167,170.5 140.833,170.5 137.5,170.5C 141.339,169.707 145.339,169.04 149.5,168.5C 150.713,168.747 151.38,169.414 151.5,170.5C 150.387,171.946 150.22,173.613 151,175.5C 152.833,177.333 154.667,179.167 156.5,181C 162.144,182.482 166.144,180.649 168.5,175.5C 169.748,174.666 170.415,173.333 170.5,171.5C 170.489,169.955 170.156,168.622 169.5,167.5C 169.5,166.5 169.5,165.5 169.5,164.5C 174.124,164.237 178.458,163.237 182.5,161.5C 185.539,160.99 188.539,160.323 191.5,159.5 Z"/></g>
<g><path style="opacity:1" fill="#d44531" d="M 168.5,175.5 C 165.233,178.752 161.233,179.918 156.5,179C 153.704,176.842 152.371,174.009 152.5,170.5C 152.833,170.5 153.167,170.5 153.5,170.5C 158.518,170.387 163.518,170.053 168.5,169.5C 168.5,171.5 168.5,173.5 168.5,175.5 Z"/></g>
<g><path style="opacity:1" fill="#b55143" d="M 151.5,170.5 C 151.833,170.5 152.167,170.5 152.5,170.5C 152.371,174.009 153.704,176.842 156.5,179C 161.233,179.918 165.233,178.752 168.5,175.5C 166.144,180.649 162.144,182.482 156.5,181C 154.667,179.167 152.833,177.333 151,175.5C 150.22,173.613 150.387,171.946 151.5,170.5 Z"/></g>
<g><path style="opacity:1" fill="#2d536a" d="M 22.5,99.5 C 23.1667,124.833 23.8333,150.167 24.5,175.5C 26.1765,176.183 26.8432,177.517 26.5,179.5C 28.4286,179.231 30.0953,179.731 31.5,181C 49.1667,181.167 66.8333,181.333 84.5,181.5C 102.921,181.655 121.254,181.155 139.5,180C 140.167,178.667 141.167,177.667 142.5,177C 142.167,176.667 141.833,176.333 141.5,176C 105.833,175.667 70.1667,175.333 34.5,175C 33.2617,174.31 33.2617,173.81 34.5,173.5C 70.8333,173.5 107.167,173.5 143.5,173.5C 144.338,173.842 144.672,174.508 144.5,175.5C 145.275,179.182 143.941,181.682 140.5,183C 102.749,183.987 65.0821,183.654 27.5,182C 25.6411,180.442 24.1411,178.609 23,176.5C 22.5,150.835 22.3334,125.169 22.5,99.5 Z"/></g>
<g><path style="opacity:1" fill="#d5dfe5" d="M 53.5,54.5 C 39.5515,66.9392 25.3848,79.2726 11,91.5C 8.94783,94.4602 9.1145,97.2935 11.5,100C 15.7929,101.202 19.2929,100.035 22,96.5C 22.4828,97.448 22.6495,98.448 22.5,99.5C 22.3334,125.169 22.5,150.835 23,176.5C 24.1411,178.609 25.6411,180.442 27.5,182C 65.0821,183.654 102.749,183.987 140.5,183C 143.941,181.682 145.275,179.182 144.5,175.5C 145.621,177.316 146.121,179.316 146,181.5C 143.806,184.181 140.973,185.681 137.5,186C 101.167,186.667 64.8333,186.667 28.5,186C 26.1667,185 23.8333,184 21.5,183C 20.8742,182.25 20.3742,181.416 20,180.5C 19.5,154.502 19.3334,128.502 19.5,102.5C 10.2569,104.088 6.42358,100.088 8,90.5C 8.33333,90.8333 8.66667,91.1667 9,91.5C 9.90087,88.9293 11.2342,86.596 13,84.5C 13.7203,82.8876 13.5536,81.3876 12.5,80C 13.448,79.5172 14.448,79.3505 15.5,79.5C 15.5,80.5 15.5,81.5 15.5,82.5C 16.8333,82.5 18.1667,82.5 19.5,82.5C 19.5,81.5 19.5,80.5 19.5,79.5C 23.099,78.4358 26.099,76.2691 28.5,73C 30.6317,72.0796 32.6317,70.9129 34.5,69.5C 37.0598,66.1152 39.3931,62.6152 41.5,59C 45.4566,57.1652 49.4566,55.6652 53.5,54.5 Z"/></g>
</svg>
